<svg width="640" height="360" viewBox="0 0 640 360" fill="none" xmlns="http://www.w3.org/2000/svg">
<g clip-path="url(#clip0_44_14937)">
<rect width="640" height="360" rx="10" fill="#3563E9"/>
<path d="M-4 298.333L-29 236.667H-4H21L46 298.333L21 360H-4H-29L-4 298.333Z" fill="white" fill-opacity="0.06"/>
<path d="M87 298.333L62 236.667H87H112L137 298.333L112 360H87H62L87 298.333Z" fill="white" fill-opacity="0.06"/>
<path d="M178 298.333L153 236.667H178H203L228 298.333L203 360H178H153L178 298.333Z" fill="white" fill-opacity="0.06"/>
<path d="M269 298.333L244 236.667H269H294L319 298.333L294 360H269H244L269 298.333Z" fill="white" fill-opacity="0.06"/>
<path d="M360 298.333L335 236.667H360H385L410 298.333L385 360H360H335L360 298.333Z" fill="white" fill-opacity="0.06"/>
<path d="M451 298.333L426 236.667H451H476L501 298.333L476 360H451H426L451 298.333Z" fill="white" fill-opacity="0.06"/>
<path d="M542 298.333L517 236.667H542H567L592 298.333L567 360H542H517L542 298.333Z" fill="white" fill-opacity="0.06"/>
<path d="M633 298.333L608 236.667H633H658L683 298.333L658 360H633H608L633 298.333Z" fill="white" fill-opacity="0.06"/>
<path d="M41 175L16 113.333H41H66L91 175L66 236.667H41H16L41 175Z" fill="white" fill-opacity="0.06"/>
<path d="M132 175L107 113.333H132H157L182 175L157 236.667H132H107L132 175Z" fill="white" fill-opacity="0.06"/>
<path d="M223 175L198 113.333H223H248L273 175L248 236.667H223H198L223 175Z" fill="white" fill-opacity="0.06"/>
<path d="M314 175L289 113.333H314H339L364 175L339 236.667H314H289L314 175Z" fill="white" fill-opacity="0.06"/>
<path d="M405 175L380 113.333H405H430L455 175L430 236.667H405H380L405 175Z" fill="white" fill-opacity="0.06"/>
<path d="M496 175L471 113.333H496H521L546 175L521 236.667H496H471L496 175Z" fill="white" fill-opacity="0.06"/>
<path d="M587 175L562 113.333H587H612L637 175L612 236.667H587H562L587 175Z" fill="white" fill-opacity="0.06"/>
<path d="M-5 51.6667L-30 -10H-5H20L45 51.6667L20 113.333H-5H-30L-5 51.6667Z" fill="white" fill-opacity="0.06"/>
<path d="M86 51.6667L61 -10H86H111L136 51.6667L111 113.333H86H61L86 51.6667Z" fill="white" fill-opacity="0.06"/>
<path d="M177 51.6667L152 -10H177H202L227 51.6667L202 113.333H177H152L177 51.6667Z" fill="white" fill-opacity="0.06"/>
<path d="M268 51.6667L243 -10H268H293L318 51.6667L293 113.333H268H243L268 51.6667Z" fill="white" fill-opacity="0.06"/>
<path d="M359 51.6667L334 -10H359H384L409 51.6667L384 113.333H359H334L359 51.6667Z" fill="white" fill-opacity="0.06"/>
<path d="M450 51.6667L425 -10H450H475L500 51.6667L475 113.333H450H425L450 51.6667Z" fill="white" fill-opacity="0.06"/>
<path d="M541 51.6667L516 -10H541H566L591 51.6667L566 113.333H541H516L541 51.6667Z" fill="white" fill-opacity="0.06"/>
<path d="M632 51.6667L607 -10H632H657L682 51.6667L657 113.333H632H607L632 51.6667Z" fill="white" fill-opacity="0.06"/>
</g>
<defs>
<clipPath id="clip0_44_14937">
<rect width="640" height="360" rx="10" fill="white"/>
</clipPath>
</defs>
</svg>
