<svg width="524" height="324" viewBox="0 0 524 324" fill="none" xmlns="http://www.w3.org/2000/svg">
<rect width="524" height="324" rx="10" fill="white"/>
<path d="M28.08 44V31.5H24.22V29.1H34.62V31.5H30.82V44H28.08ZM39.3736 44.24C38.3069 44.24 37.3336 43.9933 36.4536 43.5C35.5869 43.0067 34.8936 42.3333 34.3736 41.48C33.8669 40.6267 33.6136 39.6533 33.6136 38.56C33.6136 37.4667 33.8669 36.4933 34.3736 35.64C34.8936 34.7867 35.5869 34.1133 36.4536 33.62C37.3203 33.1267 38.2936 32.88 39.3736 32.88C40.4403 32.88 41.4069 33.1267 42.2736 33.62C43.1403 34.1133 43.8269 34.7867 44.3336 35.64C44.8536 36.48 45.1136 37.4533 45.1136 38.56C45.1136 39.6533 44.8536 40.6267 44.3336 41.48C43.8136 42.3333 43.1203 43.0067 42.2536 43.5C41.3869 43.9933 40.4269 44.24 39.3736 44.24ZM39.3736 41.84C39.9603 41.84 40.4736 41.7 40.9136 41.42C41.3669 41.14 41.7203 40.7533 41.9736 40.26C42.2403 39.7533 42.3736 39.1867 42.3736 38.56C42.3736 37.92 42.2403 37.36 41.9736 36.88C41.7203 36.3867 41.3669 36 40.9136 35.72C40.4736 35.4267 39.9603 35.28 39.3736 35.28C38.7736 35.28 38.2469 35.4267 37.7936 35.72C37.3403 36 36.9803 36.3867 36.7136 36.88C36.4603 37.36 36.3336 37.92 36.3336 38.56C36.3336 39.1867 36.4603 39.7533 36.7136 40.26C36.9803 40.7533 37.3403 41.14 37.7936 41.42C38.2469 41.7 38.7736 41.84 39.3736 41.84ZM46.5005 48V33.12H48.9605V35.28L48.7205 34.74C49.0938 34.1533 49.6005 33.7 50.2405 33.38C50.8805 33.0467 51.6205 32.88 52.4605 32.88C53.4871 32.88 54.4138 33.1333 55.2405 33.64C56.0671 34.1467 56.7205 34.8267 57.2005 35.68C57.6938 36.5333 57.9405 37.4933 57.9405 38.56C57.9405 39.6133 57.7005 40.5733 57.2205 41.44C56.7405 42.3067 56.0871 42.9933 55.2605 43.5C54.4338 43.9933 53.4938 44.24 52.4405 44.24C51.6538 44.24 50.9271 44.0867 50.2605 43.78C49.6071 43.46 49.0871 43.0067 48.7005 42.42L49.1205 41.9V48H46.5005ZM52.1405 41.84C52.7405 41.84 53.2738 41.7 53.7405 41.42C54.2071 41.14 54.5671 40.7533 54.8205 40.26C55.0871 39.7667 55.2205 39.2 55.2205 38.56C55.2205 37.92 55.0871 37.36 54.8205 36.88C54.5671 36.3867 54.2071 36 53.7405 35.72C53.2738 35.4267 52.7405 35.28 52.1405 35.28C51.5671 35.28 51.0471 35.42 50.5805 35.7C50.1271 35.98 49.7671 36.3733 49.5005 36.88C49.2471 37.3733 49.1205 37.9333 49.1205 38.56C49.1205 39.2 49.2471 39.7667 49.5005 40.26C49.7671 40.7533 50.1271 41.14 50.5805 41.42C51.0471 41.7 51.5671 41.84 52.1405 41.84ZM67.0127 44.24C66.226 44.24 65.4727 44.0933 64.7527 43.8C64.046 43.5067 63.4327 43.0933 62.9127 42.56C62.406 42.0133 62.0593 41.3667 61.8727 40.62L64.2327 39.78C64.4593 40.46 64.826 40.9667 65.3327 41.3C65.8393 41.62 66.3993 41.78 67.0127 41.78C67.5193 41.78 67.966 41.6733 68.3527 41.46C68.7527 41.2333 69.0593 40.9267 69.2727 40.54C69.486 40.14 69.5927 39.68 69.5927 39.16C69.5927 38.64 69.4793 38.1867 69.2527 37.8C69.0393 37.4133 68.7393 37.1133 68.3527 36.9C67.966 36.6733 67.5193 36.56 67.0127 36.56C66.4927 36.56 66.0193 36.6733 65.5927 36.9C65.1793 37.1267 64.8793 37.4533 64.6927 37.88L62.4727 37.38L63.6527 29.1H71.7727V31.4H64.7327L65.7527 30.22L64.9127 36.46L64.1327 35.82C64.506 35.2733 64.9593 34.8733 65.4927 34.62C66.0393 34.3667 66.6993 34.24 67.4727 34.24C68.4593 34.24 69.3127 34.4533 70.0327 34.88C70.766 35.3067 71.3327 35.8867 71.7327 36.62C72.1327 37.3533 72.3327 38.2 72.3327 39.16C72.3327 40.12 72.0993 40.9867 71.6327 41.76C71.166 42.5333 70.5327 43.14 69.7327 43.58C68.9327 44.02 68.026 44.24 67.0127 44.24ZM84.172 44.24C83.1054 44.24 82.1187 44.0467 81.212 43.66C80.3187 43.2733 79.532 42.7333 78.852 42.04C78.1854 41.3467 77.6654 40.5333 77.292 39.6C76.9187 38.6667 76.732 37.6467 76.732 36.54C76.732 35.4333 76.912 34.4133 77.272 33.48C77.6454 32.5333 78.1654 31.72 78.832 31.04C79.512 30.3467 80.3054 29.8133 81.212 29.44C82.1187 29.0533 83.1054 28.86 84.172 28.86C85.2387 28.86 86.192 29.04 87.032 29.4C87.8854 29.76 88.6054 30.24 89.192 30.84C89.7787 31.4267 90.1987 32.0733 90.452 32.78L88.012 33.92C87.732 33.1733 87.2587 32.56 86.592 32.08C85.9254 31.5867 85.1187 31.34 84.172 31.34C83.2387 31.34 82.412 31.56 81.692 32C80.9854 32.44 80.432 33.0467 80.032 33.82C79.6454 34.5933 79.452 35.5 79.452 36.54C79.452 37.58 79.6454 38.4933 80.032 39.28C80.432 40.0533 80.9854 40.66 81.692 41.1C82.412 41.54 83.2387 41.76 84.172 41.76C85.1187 41.76 85.9254 41.52 86.592 41.04C87.2587 40.5467 87.732 39.9267 88.012 39.18L90.452 40.32C90.1987 41.0267 89.7787 41.68 89.192 42.28C88.6054 42.8667 87.8854 43.34 87.032 43.7C86.192 44.06 85.2387 44.24 84.172 44.24ZM94.945 44.24C94.185 44.24 93.525 44.1133 92.965 43.86C92.405 43.6067 91.9717 43.2467 91.665 42.78C91.3583 42.3 91.205 41.7467 91.205 41.12C91.205 40.52 91.3383 39.9867 91.605 39.52C91.8717 39.04 92.285 38.64 92.845 38.32C93.405 38 94.1117 37.7733 94.965 37.64L98.525 37.06V39.06L95.465 39.58C94.945 39.6733 94.5583 39.84 94.305 40.08C94.0517 40.32 93.925 40.6333 93.925 41.02C93.925 41.3933 94.065 41.6933 94.345 41.92C94.6383 42.1333 94.9983 42.24 95.425 42.24C95.9717 42.24 96.4517 42.1267 96.865 41.9C97.2917 41.66 97.6183 41.3333 97.845 40.92C98.085 40.5067 98.205 40.0533 98.205 39.56V36.76C98.205 36.2933 98.0183 35.9067 97.645 35.6C97.285 35.28 96.805 35.12 96.205 35.12C95.645 35.12 95.145 35.2733 94.705 35.58C94.2783 35.8733 93.965 36.2667 93.765 36.76L91.625 35.72C91.8383 35.1467 92.1717 34.6533 92.625 34.24C93.0917 33.8133 93.6383 33.48 94.265 33.24C94.8917 33 95.5717 32.88 96.305 32.88C97.1983 32.88 97.985 33.0467 98.665 33.38C99.345 33.7 99.8717 34.1533 100.245 34.74C100.632 35.3133 100.825 35.9867 100.825 36.76V44H98.345V42.14L98.905 42.1C98.625 42.5667 98.2917 42.96 97.905 43.28C97.5183 43.5867 97.0783 43.8267 96.585 44C96.0917 44.16 95.545 44.24 94.945 44.24ZM102.647 44V33.12H105.107V35.54L104.907 35.18C105.16 34.3667 105.553 33.8 106.087 33.48C106.633 33.16 107.287 33 108.047 33H108.687V35.32H107.747C107 35.32 106.4 35.5533 105.947 36.02C105.493 36.4733 105.267 37.1133 105.267 37.94V44H102.647ZM112.702 44V29.1H118.242C119.255 29.1 120.148 29.2867 120.922 29.66C121.708 30.02 122.322 30.5533 122.762 31.26C123.202 31.9533 123.422 32.8 123.422 33.8C123.422 34.8267 123.175 35.7 122.682 36.42C122.202 37.14 121.548 37.6733 120.722 38.02L124.142 44H121.062L117.402 37.46L119.162 38.5H115.422V44H112.702ZM115.422 36.1H118.282C118.775 36.1 119.202 36.0067 119.562 35.82C119.922 35.62 120.202 35.3467 120.402 35C120.602 34.6533 120.702 34.2533 120.702 33.8C120.702 33.3333 120.602 32.9333 120.402 32.6C120.202 32.2533 119.922 31.9867 119.562 31.8C119.202 31.6 118.775 31.5 118.282 31.5H115.422V36.1ZM129.659 44.24C128.539 44.24 127.559 43.9867 126.719 43.48C125.879 42.9733 125.226 42.2867 124.759 41.42C124.292 40.5533 124.059 39.5933 124.059 38.54C124.059 37.4467 124.292 36.48 124.759 35.64C125.239 34.7867 125.886 34.1133 126.699 33.62C127.526 33.1267 128.446 32.88 129.459 32.88C130.312 32.88 131.059 33.02 131.699 33.3C132.352 33.58 132.906 33.9667 133.359 34.46C133.812 34.9533 134.159 35.52 134.399 36.16C134.639 36.7867 134.759 37.4667 134.759 38.2C134.759 38.3867 134.746 38.58 134.719 38.78C134.706 38.98 134.672 39.1533 134.619 39.3H126.219V37.3H133.139L131.899 38.24C132.019 37.6267 131.986 37.08 131.799 36.6C131.626 36.12 131.332 35.74 130.919 35.46C130.519 35.18 130.032 35.04 129.459 35.04C128.912 35.04 128.426 35.18 127.999 35.46C127.572 35.7267 127.246 36.1267 127.019 36.66C126.806 37.18 126.726 37.8133 126.779 38.56C126.726 39.2267 126.812 39.82 127.039 40.34C127.279 40.8467 127.626 41.24 128.079 41.52C128.546 41.8 129.079 41.94 129.679 41.94C130.279 41.94 130.786 41.8133 131.199 41.56C131.626 41.3067 131.959 40.9667 132.199 40.54L134.319 41.58C134.106 42.1 133.772 42.56 133.319 42.96C132.866 43.36 132.326 43.6733 131.699 43.9C131.086 44.1267 130.406 44.24 129.659 44.24ZM136.145 44V33.12H138.605V35.26L138.405 34.88C138.658 34.2267 139.072 33.7333 139.645 33.4C140.232 33.0533 140.912 32.88 141.685 32.88C142.485 32.88 143.192 33.0533 143.805 33.4C144.432 33.7467 144.918 34.2333 145.265 34.86C145.612 35.4733 145.785 36.1867 145.785 37V44H143.165V37.62C143.165 37.14 143.072 36.7267 142.885 36.38C142.698 36.0333 142.438 35.7667 142.105 35.58C141.785 35.38 141.405 35.28 140.965 35.28C140.538 35.28 140.158 35.38 139.825 35.58C139.492 35.7667 139.232 36.0333 139.045 36.38C138.858 36.7267 138.765 37.14 138.765 37.62V44H136.145ZM152.36 44.12C151.134 44.12 150.18 43.7867 149.5 43.12C148.834 42.44 148.5 41.4867 148.5 40.26V35.46H146.62V33.12H146.82C147.354 33.12 147.767 32.98 148.06 32.7C148.354 32.42 148.5 32.0133 148.5 31.48V30.64H151.12V33.12H153.62V35.46H151.12V40.12C151.12 40.48 151.18 40.7867 151.3 41.04C151.434 41.2933 151.634 41.4867 151.9 41.62C152.18 41.7533 152.534 41.82 152.96 41.82C153.054 41.82 153.16 41.8133 153.28 41.8C153.414 41.7867 153.54 41.7733 153.66 41.76V44C153.474 44.0267 153.26 44.0533 153.02 44.08C152.78 44.1067 152.56 44.12 152.36 44.12ZM158.323 44.24C157.563 44.24 156.903 44.1133 156.343 43.86C155.783 43.6067 155.35 43.2467 155.043 42.78C154.736 42.3 154.583 41.7467 154.583 41.12C154.583 40.52 154.716 39.9867 154.983 39.52C155.25 39.04 155.663 38.64 156.223 38.32C156.783 38 157.49 37.7733 158.343 37.64L161.903 37.06V39.06L158.843 39.58C158.323 39.6733 157.936 39.84 157.683 40.08C157.43 40.32 157.303 40.6333 157.303 41.02C157.303 41.3933 157.443 41.6933 157.723 41.92C158.016 42.1333 158.376 42.24 158.803 42.24C159.35 42.24 159.83 42.1267 160.243 41.9C160.67 41.66 160.996 41.3333 161.223 40.92C161.463 40.5067 161.583 40.0533 161.583 39.56V36.76C161.583 36.2933 161.396 35.9067 161.023 35.6C160.663 35.28 160.183 35.12 159.583 35.12C159.023 35.12 158.523 35.2733 158.083 35.58C157.656 35.8733 157.343 36.2667 157.143 36.76L155.003 35.72C155.216 35.1467 155.55 34.6533 156.003 34.24C156.47 33.8133 157.016 33.48 157.643 33.24C158.27 33 158.95 32.88 159.683 32.88C160.576 32.88 161.363 33.0467 162.043 33.38C162.723 33.7 163.25 34.1533 163.623 34.74C164.01 35.3133 164.203 35.9867 164.203 36.76V44H161.723V42.14L162.283 42.1C162.003 42.5667 161.67 42.96 161.283 43.28C160.896 43.5867 160.456 43.8267 159.963 44C159.47 44.16 158.923 44.24 158.323 44.24ZM166.025 44V28.86H168.645V44H166.025Z" fill="#1A202C"/>
<path d="M481 34C479.9 34 479 34.9 479 36C479 37.1 479.9 38 481 38C482.1 38 483 37.1 483 36C483 34.9 482.1 34 481 34Z" stroke="#1A202C" stroke-width="1.5"/>
<path d="M495 34C493.9 34 493 34.9 493 36C493 37.1 493.9 38 495 38C496.1 38 497 37.1 497 36C497 34.9 496.1 34 495 34Z" stroke="#1A202C" stroke-width="1.5"/>
<path d="M488 34C486.9 34 486 34.9 486 36C486 37.1 486.9 38 488 38C489.1 38 490 37.1 490 36C490 34.9 489.1 34 488 34Z" stroke="#1A202C" stroke-width="1.5"/>
<path d="M95.0475 187L102.488 171.88H94.0635V169.12H105.92V171.88L98.6475 187H95.0475ZM107.11 187V184.528L111.958 179.464C112.918 178.456 113.654 177.656 114.166 177.064C114.694 176.456 115.062 175.936 115.27 175.504C115.478 175.072 115.582 174.632 115.582 174.184C115.582 173.432 115.342 172.84 114.862 172.408C114.398 171.976 113.798 171.76 113.062 171.76C112.294 171.76 111.63 171.984 111.07 172.432C110.51 172.864 110.102 173.504 109.846 174.352L106.99 173.464C107.182 172.52 107.574 171.704 108.166 171.016C108.758 170.312 109.478 169.776 110.326 169.408C111.19 169.024 112.102 168.832 113.062 168.832C114.214 168.832 115.222 169.04 116.086 169.456C116.966 169.872 117.646 170.456 118.126 171.208C118.622 171.96 118.87 172.84 118.87 173.848C118.87 174.488 118.75 175.12 118.51 175.744C118.27 176.368 117.91 177.008 117.43 177.664C116.95 178.304 116.326 179.024 115.558 179.824L111.358 184.24H119.11V187H107.11ZM122.078 190.744V189.184C122.606 189.056 123.03 188.808 123.35 188.44C123.686 188.088 123.894 187.608 123.974 187H122.558V183.64H125.726V185.704C125.726 187.112 125.414 188.24 124.79 189.088C124.182 189.936 123.278 190.488 122.078 190.744ZM135.96 187.288C134.536 187.288 133.288 186.904 132.216 186.136C131.144 185.368 130.304 184.288 129.696 182.896C129.104 181.504 128.808 179.888 128.808 178.048C128.808 176.192 129.104 174.576 129.696 173.2C130.288 171.824 131.12 170.752 132.192 169.984C133.264 169.216 134.512 168.832 135.936 168.832C137.392 168.832 138.648 169.216 139.704 169.984C140.776 170.752 141.616 171.832 142.224 173.224C142.832 174.6 143.136 176.208 143.136 178.048C143.136 179.888 142.832 181.504 142.224 182.896C141.632 184.272 140.8 185.352 139.728 186.136C138.656 186.904 137.4 187.288 135.96 187.288ZM135.984 184.312C136.8 184.312 137.496 184.064 138.072 183.568C138.648 183.056 139.088 182.336 139.392 181.408C139.712 180.464 139.872 179.344 139.872 178.048C139.872 176.752 139.712 175.64 139.392 174.712C139.088 173.768 138.64 173.048 138.048 172.552C137.472 172.056 136.768 171.808 135.936 171.808C135.136 171.808 134.448 172.056 133.872 172.552C133.296 173.048 132.848 173.768 132.528 174.712C132.224 175.64 132.072 176.752 132.072 178.048C132.072 179.328 132.224 180.44 132.528 181.384C132.848 182.312 133.296 183.032 133.872 183.544C134.464 184.056 135.168 184.312 135.984 184.312ZM150.768 187.288C149.792 187.288 148.864 187.112 147.984 186.76C147.12 186.392 146.376 185.88 145.752 185.224C145.144 184.552 144.728 183.76 144.504 182.848L147.36 181.84C147.648 182.656 148.088 183.28 148.68 183.712C149.272 184.128 149.968 184.336 150.768 184.336C151.408 184.336 151.96 184.216 152.424 183.976C152.904 183.736 153.28 183.392 153.552 182.944C153.824 182.48 153.96 181.936 153.96 181.312C153.96 180.688 153.824 180.16 153.552 179.728C153.296 179.28 152.928 178.936 152.448 178.696C151.968 178.456 151.4 178.336 150.744 178.336C150.44 178.336 150.12 178.368 149.784 178.432C149.464 178.496 149.176 178.592 148.92 178.72L148.176 177.16L152.808 171.88H145.512V169.12H156.48V171.688L151.824 177.136L151.872 175.912C152.944 175.928 153.88 176.16 154.68 176.608C155.48 177.056 156.104 177.672 156.552 178.456C157 179.24 157.224 180.16 157.224 181.216C157.224 182.368 156.944 183.408 156.384 184.336C155.824 185.248 155.056 185.968 154.08 186.496C153.104 187.024 152 187.288 150.768 187.288ZM166.184 187.288C164.76 187.288 163.512 186.904 162.44 186.136C161.368 185.368 160.528 184.288 159.92 182.896C159.328 181.504 159.032 179.888 159.032 178.048C159.032 176.192 159.328 174.576 159.92 173.2C160.512 171.824 161.344 170.752 162.416 169.984C163.488 169.216 164.736 168.832 166.16 168.832C167.616 168.832 168.872 169.216 169.928 169.984C171 170.752 171.84 171.832 172.448 173.224C173.056 174.6 173.36 176.208 173.36 178.048C173.36 179.888 173.056 181.504 172.448 182.896C171.856 184.272 171.024 185.352 169.952 186.136C168.88 186.904 167.624 187.288 166.184 187.288ZM166.208 184.312C167.024 184.312 167.72 184.064 168.296 183.568C168.872 183.056 169.312 182.336 169.616 181.408C169.936 180.464 170.096 179.344 170.096 178.048C170.096 176.752 169.936 175.64 169.616 174.712C169.312 173.768 168.864 173.048 168.272 172.552C167.696 172.056 166.992 171.808 166.16 171.808C165.36 171.808 164.672 172.056 164.096 172.552C163.52 173.048 163.072 173.768 162.752 174.712C162.448 175.64 162.296 176.752 162.296 178.048C162.296 179.328 162.448 180.44 162.752 181.384C163.072 182.312 163.52 183.032 164.096 183.544C164.688 184.056 165.392 184.312 166.208 184.312Z" fill="#1A202C"/>
<path d="M102.249 217V206.57H105.931C106.622 206.57 107.228 206.701 107.751 206.962C108.274 207.223 108.68 207.597 108.969 208.082C109.268 208.567 109.417 209.137 109.417 209.79C109.417 210.527 109.23 211.153 108.857 211.666C108.484 212.179 107.98 212.548 107.345 212.772L109.767 217H108.171L105.623 212.478L106.533 213.01H103.621V217H102.249ZM103.621 211.75H105.973C106.384 211.75 106.743 211.671 107.051 211.512C107.359 211.353 107.597 211.125 107.765 210.826C107.942 210.527 108.031 210.182 108.031 209.79C108.031 209.389 107.942 209.043 107.765 208.754C107.597 208.455 107.359 208.227 107.051 208.068C106.743 207.909 106.384 207.83 105.973 207.83H103.621V211.75ZM113.941 217.168C113.213 217.168 112.565 216.995 111.995 216.65C111.426 216.305 110.978 215.833 110.651 215.236C110.325 214.629 110.161 213.953 110.161 213.206C110.161 212.45 110.32 211.778 110.637 211.19C110.964 210.602 111.403 210.14 111.953 209.804C112.513 209.459 113.139 209.286 113.829 209.286C114.389 209.286 114.884 209.389 115.313 209.594C115.752 209.79 116.121 210.061 116.419 210.406C116.727 210.742 116.961 211.129 117.119 211.568C117.287 211.997 117.371 212.445 117.371 212.912C117.371 213.015 117.362 213.131 117.343 213.262C117.334 213.383 117.32 213.5 117.301 213.612H111.113V212.492H116.545L115.929 212.996C116.013 212.511 115.967 212.077 115.789 211.694C115.612 211.311 115.351 211.008 115.005 210.784C114.66 210.56 114.268 210.448 113.829 210.448C113.391 210.448 112.989 210.56 112.625 210.784C112.261 211.008 111.977 211.33 111.771 211.75C111.575 212.161 111.496 212.651 111.533 213.22C111.496 213.771 111.58 214.256 111.785 214.676C112 215.087 112.299 215.409 112.681 215.642C113.073 215.866 113.498 215.978 113.955 215.978C114.459 215.978 114.884 215.861 115.229 215.628C115.575 215.395 115.855 215.096 116.069 214.732L117.161 215.292C117.012 215.637 116.779 215.955 116.461 216.244C116.153 216.524 115.785 216.748 115.355 216.916C114.935 217.084 114.464 217.168 113.941 217.168ZM118.789 217V209.454H120.063V210.924L119.853 210.798C120.04 210.322 120.338 209.953 120.749 209.692C121.169 209.421 121.659 209.286 122.219 209.286C122.76 209.286 123.241 209.407 123.661 209.65C124.09 209.893 124.426 210.229 124.669 210.658C124.921 211.087 125.047 211.573 125.047 212.114V217H123.731V212.534C123.731 212.114 123.656 211.759 123.507 211.47C123.358 211.181 123.143 210.957 122.863 210.798C122.592 210.63 122.28 210.546 121.925 210.546C121.57 210.546 121.253 210.63 120.973 210.798C120.702 210.957 120.488 211.185 120.329 211.484C120.17 211.773 120.091 212.123 120.091 212.534V217H118.789ZM129.696 217.084C128.959 217.084 128.389 216.874 127.988 216.454C127.596 216.034 127.4 215.441 127.4 214.676V210.7H126.028V209.454H126.308C126.644 209.454 126.91 209.351 127.106 209.146C127.302 208.941 127.4 208.67 127.4 208.334V207.718H128.702V209.454H130.396V210.7H128.702V214.634C128.702 214.886 128.739 215.105 128.814 215.292C128.898 215.479 129.033 215.628 129.22 215.74C129.407 215.843 129.654 215.894 129.962 215.894C130.027 215.894 130.107 215.889 130.2 215.88C130.303 215.871 130.396 215.861 130.48 215.852V217C130.359 217.028 130.223 217.047 130.074 217.056C129.925 217.075 129.799 217.084 129.696 217.084ZM134.017 217.168C133.523 217.168 133.084 217.079 132.701 216.902C132.328 216.715 132.034 216.463 131.819 216.146C131.605 215.819 131.497 215.446 131.497 215.026C131.497 214.625 131.581 214.265 131.749 213.948C131.927 213.621 132.197 213.346 132.561 213.122C132.935 212.898 133.401 212.739 133.961 212.646L136.761 212.184V213.276L134.255 213.696C133.77 213.78 133.415 213.934 133.191 214.158C132.977 214.382 132.869 214.657 132.869 214.984C132.869 215.292 132.991 215.549 133.233 215.754C133.485 215.959 133.798 216.062 134.171 216.062C134.647 216.062 135.058 215.964 135.403 215.768C135.758 215.563 136.033 215.287 136.229 214.942C136.435 214.597 136.537 214.214 136.537 213.794V211.876C136.537 211.465 136.383 211.134 136.075 210.882C135.777 210.621 135.38 210.49 134.885 210.49C134.456 210.49 134.073 210.602 133.737 210.826C133.411 211.041 133.168 211.33 133.009 211.694L131.875 211.106C132.015 210.761 132.239 210.453 132.547 210.182C132.855 209.902 133.215 209.683 133.625 209.524C134.036 209.365 134.465 209.286 134.913 209.286C135.492 209.286 136.001 209.398 136.439 209.622C136.878 209.837 137.219 210.14 137.461 210.532C137.713 210.915 137.839 211.363 137.839 211.876V217H136.565V215.572L136.803 215.656C136.645 215.955 136.43 216.216 136.159 216.44C135.889 216.664 135.571 216.841 135.207 216.972C134.843 217.103 134.447 217.168 134.017 217.168ZM139.578 217V206.402H140.88V217H139.578ZM149.716 217.168C148.979 217.168 148.297 217.037 147.672 216.776C147.056 216.505 146.515 216.127 146.048 215.642C145.591 215.157 145.236 214.587 144.984 213.934C144.732 213.281 144.606 212.567 144.606 211.792C144.606 211.008 144.732 210.289 144.984 209.636C145.236 208.983 145.591 208.413 146.048 207.928C146.505 207.443 147.047 207.069 147.672 206.808C148.297 206.537 148.979 206.402 149.716 206.402C150.435 206.402 151.079 206.528 151.648 206.78C152.227 207.032 152.712 207.359 153.104 207.76C153.505 208.161 153.79 208.591 153.958 209.048L152.698 209.622C152.455 209.043 152.077 208.577 151.564 208.222C151.051 207.858 150.435 207.676 149.716 207.676C148.988 207.676 148.339 207.849 147.77 208.194C147.21 208.539 146.771 209.02 146.454 209.636C146.137 210.252 145.978 210.971 145.978 211.792C145.978 212.604 146.137 213.318 146.454 213.934C146.771 214.55 147.21 215.031 147.77 215.376C148.339 215.721 148.988 215.894 149.716 215.894C150.435 215.894 151.051 215.717 151.564 215.362C152.077 214.998 152.455 214.527 152.698 213.948L153.958 214.522C153.79 214.979 153.505 215.409 153.104 215.81C152.712 216.211 152.227 216.538 151.648 216.79C151.079 217.042 150.435 217.168 149.716 217.168ZM157.466 217.168C156.971 217.168 156.532 217.079 156.15 216.902C155.776 216.715 155.482 216.463 155.268 216.146C155.053 215.819 154.946 215.446 154.946 215.026C154.946 214.625 155.03 214.265 155.198 213.948C155.375 213.621 155.646 213.346 156.01 213.122C156.383 212.898 156.85 212.739 157.41 212.646L160.21 212.184V213.276L157.704 213.696C157.218 213.78 156.864 213.934 156.64 214.158C156.425 214.382 156.318 214.657 156.318 214.984C156.318 215.292 156.439 215.549 156.682 215.754C156.934 215.959 157.246 216.062 157.62 216.062C158.096 216.062 158.506 215.964 158.852 215.768C159.206 215.563 159.482 215.287 159.678 214.942C159.883 214.597 159.986 214.214 159.986 213.794V211.876C159.986 211.465 159.832 211.134 159.524 210.882C159.225 210.621 158.828 210.49 158.334 210.49C157.904 210.49 157.522 210.602 157.186 210.826C156.859 211.041 156.616 211.33 156.458 211.694L155.324 211.106C155.464 210.761 155.688 210.453 155.996 210.182C156.304 209.902 156.663 209.683 157.074 209.524C157.484 209.365 157.914 209.286 158.362 209.286C158.94 209.286 159.449 209.398 159.888 209.622C160.326 209.837 160.667 210.14 160.91 210.532C161.162 210.915 161.288 211.363 161.288 211.876V217H160.014V215.572L160.252 215.656C160.093 215.955 159.878 216.216 159.608 216.44C159.337 216.664 159.02 216.841 158.656 216.972C158.292 217.103 157.895 217.168 157.466 217.168ZM163.026 217V209.454H164.3V210.84L164.16 210.644C164.338 210.215 164.608 209.897 164.972 209.692C165.336 209.477 165.78 209.37 166.302 209.37H166.764V210.602H166.106C165.574 210.602 165.145 210.77 164.818 211.106C164.492 211.433 164.328 211.899 164.328 212.506V217H163.026Z" fill="#90A3BF"/>
<rect x="268" y="86" width="12" height="12" rx="6" fill="#0D3559"/>
<path d="M296.732 98.168C296.079 98.168 295.472 98.0467 294.912 97.804C294.352 97.552 293.876 97.2113 293.484 96.782C293.092 96.3527 292.803 95.858 292.616 95.298L294.016 94.71C294.268 95.354 294.637 95.8487 295.122 96.194C295.607 96.5393 296.167 96.712 296.802 96.712C297.175 96.712 297.502 96.656 297.782 96.544C298.062 96.4227 298.277 96.2547 298.426 96.04C298.585 95.8253 298.664 95.578 298.664 95.298C298.664 94.9153 298.557 94.612 298.342 94.388C298.127 94.164 297.81 93.9867 297.39 93.856L295.43 93.24C294.646 92.9973 294.049 92.6287 293.638 92.134C293.227 91.63 293.022 91.042 293.022 90.37C293.022 89.782 293.167 89.2687 293.456 88.83C293.745 88.382 294.142 88.032 294.646 87.78C295.159 87.528 295.743 87.402 296.396 87.402C297.021 87.402 297.591 87.514 298.104 87.738C298.617 87.9527 299.056 88.2513 299.42 88.634C299.793 89.0167 300.064 89.46 300.232 89.964L298.86 90.566C298.655 90.0153 298.333 89.5907 297.894 89.292C297.465 88.9933 296.965 88.844 296.396 88.844C296.051 88.844 295.747 88.9047 295.486 89.026C295.225 89.138 295.019 89.306 294.87 89.53C294.73 89.7447 294.66 89.9967 294.66 90.286C294.66 90.622 294.767 90.9207 294.982 91.182C295.197 91.4433 295.523 91.6393 295.962 91.77L297.782 92.344C298.613 92.596 299.238 92.96 299.658 93.436C300.078 93.9027 300.288 94.486 300.288 95.186C300.288 95.7647 300.134 96.278 299.826 96.726C299.527 97.174 299.112 97.5287 298.58 97.79C298.048 98.042 297.432 98.168 296.732 98.168ZM301.708 100.8V90.426H303.22V91.994L303.038 91.63C303.318 91.2007 303.692 90.8647 304.158 90.622C304.625 90.3793 305.157 90.258 305.754 90.258C306.473 90.258 307.117 90.4307 307.686 90.776C308.265 91.1213 308.718 91.5927 309.044 92.19C309.38 92.7873 309.548 93.4593 309.548 94.206C309.548 94.9527 309.38 95.6247 309.044 96.222C308.718 96.8193 308.27 97.2953 307.7 97.65C307.131 97.9953 306.482 98.168 305.754 98.168C305.166 98.168 304.63 98.0467 304.144 97.804C303.668 97.5613 303.3 97.2113 303.038 96.754L303.29 96.46V100.8H301.708ZM305.6 96.698C306.048 96.698 306.445 96.5907 306.79 96.376C307.136 96.1613 307.406 95.8673 307.602 95.494C307.808 95.1113 307.91 94.682 307.91 94.206C307.91 93.73 307.808 93.3053 307.602 92.932C307.406 92.5587 307.136 92.2647 306.79 92.05C306.445 91.8353 306.048 91.728 305.6 91.728C305.162 91.728 304.765 91.8353 304.41 92.05C304.065 92.2647 303.79 92.5587 303.584 92.932C303.388 93.3053 303.29 93.73 303.29 94.206C303.29 94.682 303.388 95.1113 303.584 95.494C303.79 95.8673 304.065 96.1613 304.41 96.376C304.765 96.5907 305.162 96.698 305.6 96.698ZM314.461 98.168C313.733 98.168 313.066 97.9953 312.459 97.65C311.862 97.3047 311.386 96.8333 311.031 96.236C310.677 95.6387 310.499 94.962 310.499 94.206C310.499 93.4407 310.677 92.764 311.031 92.176C311.386 91.5787 311.862 91.112 312.459 90.776C313.057 90.4307 313.724 90.258 314.461 90.258C315.208 90.258 315.875 90.4307 316.463 90.776C317.061 91.112 317.532 91.5787 317.877 92.176C318.232 92.764 318.409 93.4407 318.409 94.206C318.409 94.9713 318.232 95.6527 317.877 96.25C317.523 96.8473 317.047 97.3187 316.449 97.664C315.852 98 315.189 98.168 314.461 98.168ZM314.461 96.698C314.909 96.698 315.306 96.5907 315.651 96.376C315.997 96.1613 316.267 95.8673 316.463 95.494C316.669 95.1113 316.771 94.682 316.771 94.206C316.771 93.73 316.669 93.3053 316.463 92.932C316.267 92.5587 315.997 92.2647 315.651 92.05C315.306 91.8353 314.909 91.728 314.461 91.728C314.023 91.728 313.626 91.8353 313.271 92.05C312.926 92.2647 312.651 92.5587 312.445 92.932C312.249 93.3053 312.151 93.73 312.151 94.206C312.151 94.682 312.249 95.1113 312.445 95.494C312.651 95.8673 312.926 96.1613 313.271 96.376C313.626 96.5907 314.023 96.698 314.461 96.698ZM319.674 98V90.426H321.186V91.952L321.046 91.728C321.214 91.2333 321.485 90.8787 321.858 90.664C322.231 90.44 322.679 90.328 323.202 90.328H323.664V91.77H323.006C322.483 91.77 322.059 91.9333 321.732 92.26C321.415 92.5773 321.256 93.0347 321.256 93.632V98H319.674ZM327.879 98.084C327.085 98.084 326.469 97.86 326.031 97.412C325.592 96.964 325.373 96.334 325.373 95.522V91.854H324.043V90.426H324.253C324.607 90.426 324.883 90.3233 325.079 90.118C325.275 89.9127 325.373 89.6327 325.373 89.278V88.69H326.955V90.426H328.677V91.854H326.955V95.452C326.955 95.7133 326.997 95.9373 327.081 96.124C327.165 96.3013 327.3 96.4413 327.487 96.544C327.673 96.6373 327.916 96.684 328.215 96.684C328.289 96.684 328.373 96.6793 328.467 96.67C328.56 96.6607 328.649 96.6513 328.733 96.642V98C328.602 98.0187 328.457 98.0373 328.299 98.056C328.14 98.0747 328 98.084 327.879 98.084ZM337.176 98.168C336.439 98.168 335.753 98.0327 335.118 97.762C334.493 97.4913 333.947 97.118 333.48 96.642C333.023 96.1567 332.663 95.5873 332.402 94.934C332.141 94.2807 332.01 93.562 332.01 92.778C332.01 92.0033 332.136 91.2893 332.388 90.636C332.649 89.9733 333.013 89.404 333.48 88.928C333.947 88.4427 334.493 88.0693 335.118 87.808C335.743 87.5373 336.429 87.402 337.176 87.402C337.913 87.402 338.571 87.528 339.15 87.78C339.738 88.032 340.233 88.3633 340.634 88.774C341.035 89.1753 341.325 89.614 341.502 90.09L340.018 90.79C339.794 90.23 339.435 89.7773 338.94 89.432C338.455 89.0773 337.867 88.9 337.176 88.9C336.485 88.9 335.874 89.0633 335.342 89.39C334.81 89.7167 334.395 90.1693 334.096 90.748C333.807 91.3267 333.662 92.0033 333.662 92.778C333.662 93.5527 333.807 94.234 334.096 94.822C334.395 95.4007 334.81 95.8533 335.342 96.18C335.874 96.4973 336.485 96.656 337.176 96.656C337.867 96.656 338.455 96.4833 338.94 96.138C339.435 95.7927 339.794 95.34 340.018 94.78L341.502 95.48C341.325 95.9467 341.035 96.3853 340.634 96.796C340.233 97.2067 339.738 97.538 339.15 97.79C338.571 98.042 337.913 98.168 337.176 98.168ZM344.898 98.168C344.385 98.168 343.932 98.0793 343.54 97.902C343.157 97.7153 342.859 97.4633 342.644 97.146C342.429 96.8193 342.322 96.4367 342.322 95.998C342.322 95.5873 342.411 95.2187 342.588 94.892C342.775 94.5653 343.059 94.29 343.442 94.066C343.825 93.842 344.305 93.6833 344.884 93.59L347.516 93.156V94.402L345.192 94.808C344.772 94.8827 344.464 95.018 344.268 95.214C344.072 95.4007 343.974 95.6433 343.974 95.942C343.974 96.2313 344.081 96.4693 344.296 96.656C344.52 96.8333 344.805 96.922 345.15 96.922C345.579 96.922 345.953 96.8287 346.27 96.642C346.597 96.4553 346.849 96.208 347.026 95.9C347.203 95.5827 347.292 95.2327 347.292 94.85V92.904C347.292 92.5307 347.152 92.2273 346.872 91.994C346.601 91.7513 346.237 91.63 345.78 91.63C345.36 91.63 344.991 91.742 344.674 91.966C344.366 92.1807 344.137 92.4607 343.988 92.806L342.672 92.148C342.812 91.7747 343.041 91.448 343.358 91.168C343.675 90.8787 344.044 90.6547 344.464 90.496C344.893 90.3373 345.346 90.258 345.822 90.258C346.419 90.258 346.947 90.37 347.404 90.594C347.871 90.818 348.23 91.1307 348.482 91.532C348.743 91.924 348.874 92.3813 348.874 92.904V98H347.362V96.628L347.684 96.67C347.507 96.978 347.278 97.244 346.998 97.468C346.727 97.692 346.415 97.8647 346.06 97.986C345.715 98.1073 345.327 98.168 344.898 98.168ZM350.444 98V90.426H351.956V91.952L351.816 91.728C351.984 91.2333 352.254 90.8787 352.628 90.664C353.001 90.44 353.449 90.328 353.972 90.328H354.434V91.77H353.776C353.253 91.77 352.828 91.9333 352.502 92.26C352.184 92.5773 352.026 93.0347 352.026 93.632V98H350.444Z" fill="#90A3BF"/>
<path d="M460.784 98V88.97H458.782V87.57H462.422V98H460.784ZM464.572 98L469.024 88.97H464.012V87.57H470.746V88.97L466.364 98H464.572ZM471.559 100.058V99.288C471.867 99.2133 472.105 99.0687 472.273 98.854C472.441 98.6487 472.543 98.364 472.581 98H471.839V96.18H473.449V97.37C473.449 98.1167 473.29 98.7187 472.973 99.176C472.655 99.6333 472.184 99.9273 471.559 100.058ZM480.058 98V95.648H475.088V94.276L479.988 87.57H481.626V94.276H483.068V95.648H481.626V98H480.058ZM476.306 94.878L476.04 94.276H480.058V88.886L480.506 89.026L476.306 94.878ZM487.415 98.168C486.855 98.168 486.328 98.0653 485.833 97.86C485.348 97.6547 484.928 97.3653 484.573 96.992C484.228 96.6187 483.981 96.18 483.831 95.676L485.231 95.144C485.418 95.6387 485.703 96.0213 486.085 96.292C486.468 96.5627 486.911 96.698 487.415 96.698C487.826 96.698 488.181 96.6187 488.479 96.46C488.787 96.3013 489.025 96.0773 489.193 95.788C489.371 95.4987 489.459 95.1487 489.459 94.738C489.459 94.3367 489.371 93.9913 489.193 93.702C489.025 93.4127 488.787 93.1933 488.479 93.044C488.181 92.8947 487.826 92.82 487.415 92.82C487.247 92.82 487.075 92.834 486.897 92.862C486.729 92.89 486.58 92.9273 486.449 92.974L486.085 92.204L488.829 88.97H484.391V87.57H490.677V88.9L487.989 92.12L487.947 91.588C488.573 91.5973 489.123 91.7373 489.599 92.008C490.075 92.2693 490.444 92.6333 490.705 93.1C490.976 93.5573 491.111 94.0893 491.111 94.696C491.111 95.3493 490.953 95.942 490.635 96.474C490.318 96.9967 489.879 97.412 489.319 97.72C488.769 98.0187 488.134 98.168 487.415 98.168ZM493.146 98L496.716 93.38L496.996 93.562C496.865 93.702 496.72 93.814 496.562 93.898C496.412 93.982 496.249 94.0427 496.072 94.08C495.904 94.1173 495.722 94.136 495.526 94.136C494.9 94.136 494.34 93.996 493.846 93.716C493.351 93.4267 492.959 93.0347 492.67 92.54C492.39 92.036 492.25 91.4667 492.25 90.832C492.25 90.1693 492.404 89.5813 492.712 89.068C493.02 88.5547 493.44 88.1487 493.972 87.85C494.504 87.5513 495.11 87.402 495.792 87.402C496.482 87.402 497.089 87.5513 497.612 87.85C498.144 88.1487 498.559 88.5593 498.858 89.082C499.166 89.5953 499.32 90.1833 499.32 90.846C499.32 91.2007 499.282 91.5507 499.208 91.896C499.133 92.2413 499.002 92.6007 498.816 92.974C498.629 93.338 498.368 93.7393 498.032 94.178L495.12 98H493.146ZM495.792 92.75C496.156 92.75 496.478 92.666 496.758 92.498C497.038 92.33 497.262 92.1013 497.43 91.812C497.598 91.5227 497.682 91.1913 497.682 90.818C497.682 90.4353 497.598 90.0993 497.43 89.81C497.262 89.5113 497.033 89.2827 496.744 89.124C496.464 88.956 496.146 88.872 495.792 88.872C495.437 88.872 495.115 88.956 494.826 89.124C494.546 89.2827 494.322 89.5113 494.154 89.81C493.986 90.0993 493.902 90.4353 493.902 90.818C493.902 91.1913 493.981 91.5227 494.14 91.812C494.308 92.1013 494.536 92.33 494.826 92.498C495.115 92.666 495.437 92.75 495.792 92.75Z" fill="#1A202C"/>
<rect x="268" y="282" width="12" height="12" rx="6" fill="#A6CEF2"/>
<path d="M293.078 294V283.57H294.618L298.538 289.002H297.768L301.618 283.57H303.158V294H301.52V285.516L302.136 285.684L298.202 291.06H298.034L294.184 285.684L294.73 285.516V294H293.078ZM305.034 294V283.57H308.828C309.528 283.57 310.144 283.701 310.676 283.962C311.218 284.214 311.638 284.587 311.936 285.082C312.235 285.567 312.384 286.151 312.384 286.832C312.384 287.504 312.23 288.083 311.922 288.568C311.624 289.053 311.208 289.427 310.676 289.688C310.144 289.949 309.528 290.08 308.828 290.08H306.686V294H305.034ZM306.686 288.61H308.87C309.244 288.61 309.57 288.535 309.85 288.386C310.13 288.237 310.35 288.031 310.508 287.77C310.667 287.499 310.746 287.182 310.746 286.818C310.746 286.454 310.667 286.141 310.508 285.88C310.35 285.609 310.13 285.404 309.85 285.264C309.57 285.115 309.244 285.04 308.87 285.04H306.686V288.61ZM316.577 294L312.881 283.57H314.659L317.683 292.474H317.333L320.343 283.57H322.121L318.425 294H316.577Z" fill="#90A3BF"/>
<path d="M457.257 294V284.97H455.255V283.57H458.895V294H457.257ZM465.511 294V291.648H460.541V290.276L465.441 283.57H467.079V290.276H468.521V291.648H467.079V294H465.511ZM461.759 290.878L461.493 290.276H465.511V284.886L465.959 285.026L461.759 290.878ZM470.096 296.058V295.288C470.404 295.213 470.642 295.069 470.81 294.854C470.978 294.649 471.08 294.364 471.118 294H470.376V292.18H471.986V293.37C471.986 294.117 471.827 294.719 471.51 295.176C471.192 295.633 470.721 295.927 470.096 296.058ZM478.596 294V291.648H473.626V290.276L478.526 283.57H480.164V290.276H481.606V291.648H480.164V294H478.596ZM474.844 290.878L474.578 290.276H478.596V284.886L479.044 285.026L474.844 290.878ZM486.876 294.168C486.046 294.168 485.318 293.944 484.692 293.496C484.067 293.039 483.577 292.409 483.222 291.606C482.877 290.794 482.704 289.851 482.704 288.778C482.704 287.695 482.877 286.753 483.222 285.95C483.577 285.147 484.062 284.522 484.678 284.074C485.304 283.626 486.032 283.402 486.862 283.402C487.693 283.402 488.416 283.626 489.032 284.074C489.658 284.522 490.143 285.152 490.488 285.964C490.843 286.767 491.02 287.705 491.02 288.778C491.02 289.851 490.848 290.794 490.502 291.606C490.157 292.409 489.672 293.039 489.046 293.496C488.43 293.944 487.707 294.168 486.876 294.168ZM486.876 292.656C487.39 292.656 487.833 292.497 488.206 292.18C488.58 291.863 488.869 291.415 489.074 290.836C489.28 290.257 489.382 289.571 489.382 288.778C489.382 287.985 489.28 287.299 489.074 286.72C488.869 286.141 488.58 285.693 488.206 285.376C487.833 285.059 487.385 284.9 486.862 284.9C486.349 284.9 485.906 285.059 485.532 285.376C485.159 285.693 484.87 286.141 484.664 286.72C484.459 287.299 484.356 287.985 484.356 288.778C484.356 289.562 484.459 290.248 484.664 290.836C484.87 291.415 485.159 291.863 485.532 292.18C485.915 292.497 486.363 292.656 486.876 292.656ZM495.806 294.168C495.124 294.168 494.518 294.019 493.986 293.72C493.454 293.421 493.034 293.011 492.726 292.488C492.427 291.965 492.278 291.373 492.278 290.71C492.278 290.365 492.315 290.019 492.39 289.674C492.464 289.329 492.595 288.969 492.782 288.596C492.978 288.223 493.239 287.821 493.566 287.392L496.478 283.57H498.452L494.882 288.19L494.602 288.008C494.732 287.859 494.872 287.742 495.022 287.658C495.18 287.574 495.344 287.513 495.512 287.476C495.689 287.439 495.876 287.42 496.072 287.42C496.697 287.42 497.257 287.565 497.752 287.854C498.246 288.143 498.634 288.535 498.914 289.03C499.203 289.525 499.348 290.094 499.348 290.738C499.348 291.391 499.194 291.979 498.886 292.502C498.578 293.015 498.158 293.421 497.626 293.72C497.103 294.019 496.496 294.168 495.806 294.168ZM495.806 292.698C496.17 292.698 496.492 292.614 496.772 292.446C497.052 292.278 497.276 292.049 497.444 291.76C497.612 291.461 497.696 291.125 497.696 290.752C497.696 290.369 497.612 290.033 497.444 289.744C497.285 289.455 497.061 289.231 496.772 289.072C496.492 288.904 496.17 288.82 495.806 288.82C495.451 288.82 495.129 288.904 494.84 289.072C494.56 289.231 494.336 289.455 494.168 289.744C494 290.033 493.916 290.369 493.916 290.752C493.916 291.125 494 291.461 494.168 291.76C494.336 292.049 494.56 292.278 494.84 292.446C495.129 292.614 495.451 292.698 495.806 292.698Z" fill="#1A202C"/>
<rect x="268" y="184" width="12" height="12" rx="6" fill="#2185DE"/>
<path d="M297.936 196.168C297.199 196.168 296.513 196.033 295.878 195.762C295.253 195.491 294.707 195.118 294.24 194.642C293.783 194.157 293.423 193.587 293.162 192.934C292.901 192.281 292.77 191.562 292.77 190.778C292.77 190.003 292.896 189.289 293.148 188.636C293.409 187.973 293.773 187.404 294.24 186.928C294.707 186.443 295.253 186.069 295.878 185.808C296.503 185.537 297.189 185.402 297.936 185.402C298.673 185.402 299.331 185.528 299.91 185.78C300.498 186.032 300.993 186.363 301.394 186.774C301.795 187.175 302.085 187.614 302.262 188.09L300.778 188.79C300.554 188.23 300.195 187.777 299.7 187.432C299.215 187.077 298.627 186.9 297.936 186.9C297.245 186.9 296.634 187.063 296.102 187.39C295.57 187.717 295.155 188.169 294.856 188.748C294.567 189.327 294.422 190.003 294.422 190.778C294.422 191.553 294.567 192.234 294.856 192.822C295.155 193.401 295.57 193.853 296.102 194.18C296.634 194.497 297.245 194.656 297.936 194.656C298.627 194.656 299.215 194.483 299.7 194.138C300.195 193.793 300.554 193.34 300.778 192.78L302.262 193.48C302.085 193.947 301.795 194.385 301.394 194.796C300.993 195.207 300.498 195.538 299.91 195.79C299.331 196.042 298.673 196.168 297.936 196.168ZM307.044 196.168C306.316 196.168 305.649 195.995 305.042 195.65C304.445 195.305 303.969 194.833 303.614 194.236C303.259 193.639 303.082 192.962 303.082 192.206C303.082 191.441 303.259 190.764 303.614 190.176C303.969 189.579 304.445 189.112 305.042 188.776C305.639 188.431 306.307 188.258 307.044 188.258C307.791 188.258 308.458 188.431 309.046 188.776C309.643 189.112 310.115 189.579 310.46 190.176C310.815 190.764 310.992 191.441 310.992 192.206C310.992 192.971 310.815 193.653 310.46 194.25C310.105 194.847 309.629 195.319 309.032 195.664C308.435 196 307.772 196.168 307.044 196.168ZM307.044 194.698C307.492 194.698 307.889 194.591 308.234 194.376C308.579 194.161 308.85 193.867 309.046 193.494C309.251 193.111 309.354 192.682 309.354 192.206C309.354 191.73 309.251 191.305 309.046 190.932C308.85 190.559 308.579 190.265 308.234 190.05C307.889 189.835 307.492 189.728 307.044 189.728C306.605 189.728 306.209 189.835 305.854 190.05C305.509 190.265 305.233 190.559 305.028 190.932C304.832 191.305 304.734 191.73 304.734 192.206C304.734 192.682 304.832 193.111 305.028 193.494C305.233 193.867 305.509 194.161 305.854 194.376C306.209 194.591 306.605 194.698 307.044 194.698ZM314.959 196.168C314.389 196.168 313.89 196.042 313.461 195.79C313.031 195.529 312.695 195.169 312.453 194.712C312.219 194.245 312.103 193.709 312.103 193.102V188.426H313.685V192.962C313.685 193.307 313.755 193.611 313.895 193.872C314.035 194.133 314.231 194.339 314.483 194.488C314.735 194.628 315.024 194.698 315.351 194.698C315.687 194.698 315.981 194.623 316.233 194.474C316.485 194.325 316.681 194.115 316.821 193.844C316.97 193.573 317.045 193.256 317.045 192.892V188.426H318.613V196H317.115V194.516L317.283 194.712C317.105 195.179 316.811 195.538 316.401 195.79C315.99 196.042 315.509 196.168 314.959 196.168ZM320.18 198.8V188.426H321.692V189.994L321.51 189.63C321.79 189.201 322.163 188.865 322.63 188.622C323.096 188.379 323.628 188.258 324.226 188.258C324.944 188.258 325.588 188.431 326.158 188.776C326.736 189.121 327.189 189.593 327.516 190.19C327.852 190.787 328.02 191.459 328.02 192.206C328.02 192.953 327.852 193.625 327.516 194.222C327.189 194.819 326.741 195.295 326.172 195.65C325.602 195.995 324.954 196.168 324.226 196.168C323.638 196.168 323.101 196.047 322.616 195.804C322.14 195.561 321.771 195.211 321.51 194.754L321.762 194.46V198.8H320.18ZM324.072 194.698C324.52 194.698 324.916 194.591 325.262 194.376C325.607 194.161 325.878 193.867 326.074 193.494C326.279 193.111 326.382 192.682 326.382 192.206C326.382 191.73 326.279 191.305 326.074 190.932C325.878 190.559 325.607 190.265 325.262 190.05C324.916 189.835 324.52 189.728 324.072 189.728C323.633 189.728 323.236 189.835 322.882 190.05C322.536 190.265 322.261 190.559 322.056 190.932C321.86 191.305 321.762 191.73 321.762 192.206C321.762 192.682 321.86 193.111 322.056 193.494C322.261 193.867 322.536 194.161 322.882 194.376C323.236 194.591 323.633 194.698 324.072 194.698ZM332.835 196.168C332.079 196.168 331.407 195.995 330.819 195.65C330.24 195.295 329.787 194.819 329.461 194.222C329.134 193.615 328.971 192.939 328.971 192.192C328.971 191.427 329.134 190.75 329.461 190.162C329.797 189.574 330.245 189.112 330.805 188.776C331.365 188.431 331.999 188.258 332.709 188.258C333.278 188.258 333.787 188.356 334.235 188.552C334.683 188.748 335.061 189.019 335.369 189.364C335.677 189.7 335.91 190.087 336.069 190.526C336.237 190.965 336.321 191.431 336.321 191.926C336.321 192.047 336.316 192.173 336.307 192.304C336.297 192.435 336.279 192.556 336.251 192.668H330.217V191.408H335.355L334.599 191.982C334.692 191.525 334.659 191.119 334.501 190.764C334.351 190.4 334.118 190.115 333.801 189.91C333.493 189.695 333.129 189.588 332.709 189.588C332.289 189.588 331.915 189.695 331.589 189.91C331.262 190.115 331.01 190.414 330.833 190.806C330.655 191.189 330.585 191.655 330.623 192.206C330.576 192.719 330.646 193.167 330.833 193.55C331.029 193.933 331.299 194.231 331.645 194.446C331.999 194.661 332.401 194.768 332.849 194.768C333.306 194.768 333.693 194.665 334.011 194.46C334.337 194.255 334.594 193.989 334.781 193.662L336.069 194.292C335.919 194.647 335.686 194.969 335.369 195.258C335.061 195.538 334.687 195.762 334.249 195.93C333.819 196.089 333.348 196.168 332.835 196.168Z" fill="#90A3BF"/>
<path d="M463.737 196V186.97H461.735V185.57H465.375V196H463.737ZM470.885 196.168C470.157 196.168 469.518 196.028 468.967 195.748C468.426 195.459 468.006 195.076 467.707 194.6C467.409 194.115 467.259 193.578 467.259 192.99C467.259 192.318 467.441 191.739 467.805 191.254C468.179 190.759 468.701 190.4 469.373 190.176L469.303 190.596C468.809 190.409 468.417 190.097 468.127 189.658C467.847 189.21 467.707 188.72 467.707 188.188C467.707 187.656 467.843 187.18 468.113 186.76C468.393 186.34 468.771 186.009 469.247 185.766C469.733 185.523 470.279 185.402 470.885 185.402C471.501 185.402 472.047 185.523 472.523 185.766C472.999 185.999 473.373 186.326 473.643 186.746C473.923 187.166 474.063 187.647 474.063 188.188C474.063 188.739 473.919 189.233 473.629 189.672C473.349 190.101 472.967 190.409 472.481 190.596L472.411 190.176C473.083 190.409 473.606 190.769 473.979 191.254C474.353 191.739 474.539 192.318 474.539 192.99C474.539 193.578 474.385 194.115 474.077 194.6C473.779 195.076 473.354 195.459 472.803 195.748C472.253 196.028 471.613 196.168 470.885 196.168ZM470.885 194.768C471.287 194.768 471.637 194.693 471.935 194.544C472.234 194.385 472.467 194.171 472.635 193.9C472.803 193.629 472.887 193.312 472.887 192.948C472.887 192.584 472.803 192.267 472.635 191.996C472.467 191.725 472.234 191.515 471.935 191.366C471.637 191.217 471.287 191.142 470.885 191.142C470.493 191.142 470.148 191.217 469.849 191.366C469.551 191.515 469.317 191.725 469.149 191.996C468.981 192.267 468.897 192.584 468.897 192.948C468.897 193.312 468.981 193.629 469.149 193.9C469.317 194.171 469.551 194.385 469.849 194.544C470.148 194.693 470.493 194.768 470.885 194.768ZM470.885 189.742C471.184 189.742 471.445 189.681 471.669 189.56C471.903 189.429 472.085 189.252 472.215 189.028C472.346 188.804 472.411 188.552 472.411 188.272C472.411 187.983 472.346 187.731 472.215 187.516C472.085 187.292 471.903 187.119 471.669 186.998C471.445 186.867 471.184 186.802 470.885 186.802C470.596 186.802 470.335 186.867 470.101 186.998C469.868 187.119 469.686 187.292 469.555 187.516C469.425 187.731 469.359 187.983 469.359 188.272C469.359 188.552 469.425 188.804 469.555 189.028C469.686 189.252 469.868 189.429 470.101 189.56C470.335 189.681 470.596 189.742 470.885 189.742ZM476.358 198.058V197.288C476.666 197.213 476.904 197.069 477.072 196.854C477.24 196.649 477.342 196.364 477.38 196H476.638V194.18H478.248V195.37C478.248 196.117 478.089 196.719 477.772 197.176C477.454 197.633 476.983 197.927 476.358 198.058ZM481.381 196V186.97H479.379V185.57H483.019V196H481.381ZM485.674 196L489.244 191.38L489.524 191.562C489.393 191.702 489.249 191.814 489.09 191.898C488.941 191.982 488.777 192.043 488.6 192.08C488.432 192.117 488.25 192.136 488.054 192.136C487.429 192.136 486.869 191.996 486.374 191.716C485.879 191.427 485.487 191.035 485.198 190.54C484.918 190.036 484.778 189.467 484.778 188.832C484.778 188.169 484.932 187.581 485.24 187.068C485.548 186.555 485.968 186.149 486.5 185.85C487.032 185.551 487.639 185.402 488.32 185.402C489.011 185.402 489.617 185.551 490.14 185.85C490.672 186.149 491.087 186.559 491.386 187.082C491.694 187.595 491.848 188.183 491.848 188.846C491.848 189.201 491.811 189.551 491.736 189.896C491.661 190.241 491.531 190.601 491.344 190.974C491.157 191.338 490.896 191.739 490.56 192.178L487.648 196H485.674ZM488.32 190.75C488.684 190.75 489.006 190.666 489.286 190.498C489.566 190.33 489.79 190.101 489.958 189.812C490.126 189.523 490.21 189.191 490.21 188.818C490.21 188.435 490.126 188.099 489.958 187.81C489.79 187.511 489.561 187.283 489.272 187.124C488.992 186.956 488.675 186.872 488.32 186.872C487.965 186.872 487.643 186.956 487.354 187.124C487.074 187.283 486.85 187.511 486.682 187.81C486.514 188.099 486.43 188.435 486.43 188.818C486.43 189.191 486.509 189.523 486.668 189.812C486.836 190.101 487.065 190.33 487.354 190.498C487.643 190.666 487.965 190.75 488.32 190.75ZM493.298 196L497.75 186.97H492.738V185.57H499.472V186.97L495.09 196H493.298Z" fill="#1A202C"/>
<rect x="268" y="233" width="12" height="12" rx="6" fill="#63A9E8"/>
<path d="M293.078 245V234.57H294.73V239.162H299.56V234.57H301.198V245H299.56V240.632H294.73V245H293.078ZM305.193 245.168C304.68 245.168 304.227 245.079 303.835 244.902C303.453 244.715 303.154 244.463 302.939 244.146C302.725 243.819 302.617 243.437 302.617 242.998C302.617 242.587 302.706 242.219 302.883 241.892C303.07 241.565 303.355 241.29 303.737 241.066C304.12 240.842 304.601 240.683 305.179 240.59L307.811 240.156V241.402L305.487 241.808C305.067 241.883 304.759 242.018 304.563 242.214C304.367 242.401 304.269 242.643 304.269 242.942C304.269 243.231 304.377 243.469 304.591 243.656C304.815 243.833 305.1 243.922 305.445 243.922C305.875 243.922 306.248 243.829 306.565 243.642C306.892 243.455 307.144 243.208 307.321 242.9C307.499 242.583 307.587 242.233 307.587 241.85V239.904C307.587 239.531 307.447 239.227 307.167 238.994C306.897 238.751 306.533 238.63 306.075 238.63C305.655 238.63 305.287 238.742 304.969 238.966C304.661 239.181 304.433 239.461 304.283 239.806L302.967 239.148C303.107 238.775 303.336 238.448 303.653 238.168C303.971 237.879 304.339 237.655 304.759 237.496C305.189 237.337 305.641 237.258 306.117 237.258C306.715 237.258 307.242 237.37 307.699 237.594C308.166 237.818 308.525 238.131 308.777 238.532C309.039 238.924 309.169 239.381 309.169 239.904V245H307.657V243.628L307.979 243.67C307.802 243.978 307.573 244.244 307.293 244.468C307.023 244.692 306.71 244.865 306.355 244.986C306.01 245.107 305.623 245.168 305.193 245.168ZM313.878 245.084C313.085 245.084 312.469 244.86 312.03 244.412C311.592 243.964 311.372 243.334 311.372 242.522V238.854H310.042V237.426H310.252C310.607 237.426 310.882 237.323 311.078 237.118C311.274 236.913 311.372 236.633 311.372 236.278V235.69H312.954V237.426H314.676V238.854H312.954V242.452C312.954 242.713 312.996 242.937 313.08 243.124C313.164 243.301 313.3 243.441 313.486 243.544C313.673 243.637 313.916 243.684 314.214 243.684C314.289 243.684 314.373 243.679 314.466 243.67C314.56 243.661 314.648 243.651 314.732 243.642V245C314.602 245.019 314.457 245.037 314.298 245.056C314.14 245.075 314 245.084 313.878 245.084ZM319.457 245.168C318.701 245.168 318.029 244.995 317.441 244.65C316.863 244.295 316.401 243.819 316.055 243.222C315.719 242.625 315.551 241.948 315.551 241.192C315.551 240.445 315.719 239.773 316.055 239.176C316.391 238.579 316.853 238.112 317.441 237.776C318.029 237.431 318.701 237.258 319.457 237.258C319.971 237.258 320.451 237.351 320.899 237.538C321.347 237.715 321.735 237.963 322.061 238.28C322.397 238.597 322.645 238.966 322.803 239.386L321.417 240.03C321.259 239.638 321.002 239.325 320.647 239.092C320.302 238.849 319.905 238.728 319.457 238.728C319.028 238.728 318.641 238.835 318.295 239.05C317.959 239.255 317.693 239.549 317.497 239.932C317.301 240.305 317.203 240.73 317.203 241.206C317.203 241.682 317.301 242.111 317.497 242.494C317.693 242.867 317.959 243.161 318.295 243.376C318.641 243.591 319.028 243.698 319.457 243.698C319.915 243.698 320.311 243.581 320.647 243.348C320.993 243.105 321.249 242.783 321.417 242.382L322.803 243.04C322.654 243.441 322.411 243.805 322.075 244.132C321.749 244.449 321.361 244.701 320.913 244.888C320.465 245.075 319.98 245.168 319.457 245.168ZM324.07 245V234.402H325.652V238.91L325.4 238.714C325.586 238.238 325.885 237.879 326.296 237.636C326.706 237.384 327.182 237.258 327.724 237.258C328.284 237.258 328.778 237.379 329.208 237.622C329.637 237.865 329.973 238.201 330.216 238.63C330.458 239.059 330.58 239.549 330.58 240.1V245H329.012V240.534C329.012 240.151 328.937 239.829 328.788 239.568C328.648 239.297 328.452 239.092 328.2 238.952C327.948 238.803 327.658 238.728 327.332 238.728C327.014 238.728 326.725 238.803 326.464 238.952C326.212 239.092 326.011 239.297 325.862 239.568C325.722 239.839 325.652 240.161 325.652 240.534V245H324.07ZM336.039 245.168C335.451 245.168 334.914 245.047 334.429 244.804C333.953 244.561 333.584 244.211 333.323 243.754L333.505 243.46V245H331.993V234.402H333.575V238.994L333.323 238.63C333.603 238.201 333.976 237.865 334.443 237.622C334.909 237.379 335.441 237.258 336.039 237.258C336.757 237.258 337.401 237.431 337.971 237.776C338.549 238.121 339.002 238.593 339.329 239.19C339.665 239.787 339.833 240.459 339.833 241.206C339.833 241.953 339.665 242.625 339.329 243.222C339.002 243.819 338.554 244.295 337.985 244.65C337.415 244.995 336.767 245.168 336.039 245.168ZM335.885 243.698C336.333 243.698 336.729 243.591 337.075 243.376C337.42 243.161 337.691 242.867 337.887 242.494C338.092 242.111 338.195 241.682 338.195 241.206C338.195 240.73 338.092 240.305 337.887 239.932C337.691 239.559 337.42 239.265 337.075 239.05C336.729 238.835 336.333 238.728 335.885 238.728C335.446 238.728 335.049 238.835 334.695 239.05C334.349 239.265 334.074 239.559 333.869 239.932C333.673 240.305 333.575 240.73 333.575 241.206C333.575 241.682 333.673 242.111 333.869 242.494C334.074 242.867 334.349 243.161 334.695 243.376C335.049 243.591 335.446 243.698 335.885 243.698ZM343.36 245.168C342.846 245.168 342.394 245.079 342.002 244.902C341.619 244.715 341.32 244.463 341.106 244.146C340.891 243.819 340.784 243.437 340.784 242.998C340.784 242.587 340.872 242.219 341.05 241.892C341.236 241.565 341.521 241.29 341.904 241.066C342.286 240.842 342.767 240.683 343.346 240.59L345.978 240.156V241.402L343.654 241.808C343.234 241.883 342.926 242.018 342.73 242.214C342.534 242.401 342.436 242.643 342.436 242.942C342.436 243.231 342.543 243.469 342.758 243.656C342.982 243.833 343.266 243.922 343.612 243.922C344.041 243.922 344.414 243.829 344.732 243.642C345.058 243.455 345.31 243.208 345.488 242.9C345.665 242.583 345.754 242.233 345.754 241.85V239.904C345.754 239.531 345.614 239.227 345.334 238.994C345.063 238.751 344.699 238.63 344.242 238.63C343.822 238.63 343.453 238.742 343.136 238.966C342.828 239.181 342.599 239.461 342.45 239.806L341.134 239.148C341.274 238.775 341.502 238.448 341.82 238.168C342.137 237.879 342.506 237.655 342.926 237.496C343.355 237.337 343.808 237.258 344.284 237.258C344.881 237.258 345.408 237.37 345.866 237.594C346.332 237.818 346.692 238.131 346.944 238.532C347.205 238.924 347.336 239.381 347.336 239.904V245H345.824V243.628L346.146 243.67C345.968 243.978 345.74 244.244 345.46 244.468C345.189 244.692 344.876 244.865 344.522 244.986C344.176 245.107 343.789 245.168 343.36 245.168ZM352.503 245.168C351.747 245.168 351.075 244.995 350.487 244.65C349.909 244.295 349.447 243.819 349.101 243.222C348.765 242.625 348.597 241.948 348.597 241.192C348.597 240.445 348.765 239.773 349.101 239.176C349.437 238.579 349.899 238.112 350.487 237.776C351.075 237.431 351.747 237.258 352.503 237.258C353.017 237.258 353.497 237.351 353.945 237.538C354.393 237.715 354.781 237.963 355.107 238.28C355.443 238.597 355.691 238.966 355.849 239.386L354.463 240.03C354.305 239.638 354.048 239.325 353.693 239.092C353.348 238.849 352.951 238.728 352.503 238.728C352.074 238.728 351.687 238.835 351.341 239.05C351.005 239.255 350.739 239.549 350.543 239.932C350.347 240.305 350.249 240.73 350.249 241.206C350.249 241.682 350.347 242.111 350.543 242.494C350.739 242.867 351.005 243.161 351.341 243.376C351.687 243.591 352.074 243.698 352.503 243.698C352.961 243.698 353.357 243.581 353.693 243.348C354.039 243.105 354.295 242.783 354.463 242.382L355.849 243.04C355.7 243.441 355.457 243.805 355.121 244.132C354.795 244.449 354.407 244.701 353.959 244.888C353.511 245.075 353.026 245.168 352.503 245.168ZM357.116 245V234.402H358.698V241.5L358.082 241.346L361.876 237.426H363.85L360.994 240.464L363.976 245H362.156L359.496 240.982L360.434 240.856L358.194 243.236L358.698 242.186V245H357.116Z" fill="#90A3BF"/>
<path d="M461.303 245V235.97H459.301V234.57H462.941V245H461.303ZM464.742 245V243.81L467.598 240.758C468.158 240.161 468.597 239.68 468.914 239.316C469.241 238.943 469.474 238.616 469.614 238.336C469.763 238.056 469.838 237.762 469.838 237.454C469.838 236.95 469.684 236.563 469.376 236.292C469.068 236.012 468.671 235.872 468.186 235.872C467.682 235.872 467.248 236.017 466.884 236.306C466.52 236.586 466.268 236.997 466.128 237.538L464.672 237.118C464.784 236.567 465.008 236.091 465.344 235.69C465.68 235.279 466.091 234.962 466.576 234.738C467.071 234.514 467.603 234.402 468.172 234.402C468.835 234.402 469.413 234.528 469.908 234.78C470.403 235.023 470.785 235.363 471.056 235.802C471.336 236.241 471.476 236.749 471.476 237.328C471.476 237.711 471.401 238.084 471.252 238.448C471.112 238.803 470.893 239.181 470.594 239.582C470.295 239.974 469.913 240.417 469.446 240.912L466.926 243.6H471.672V245H464.742ZM473.459 247.058V246.288C473.767 246.213 474.005 246.069 474.173 245.854C474.341 245.649 474.444 245.364 474.481 245H473.739V243.18H475.349V244.37C475.349 245.117 475.19 245.719 474.873 246.176C474.556 246.633 474.084 246.927 473.459 247.058ZM480.629 245.168C480.078 245.168 479.56 245.07 479.075 244.874C478.589 244.669 478.169 244.384 477.815 244.02C477.46 243.656 477.208 243.217 477.059 242.704L478.445 242.172C478.622 242.667 478.911 243.045 479.313 243.306C479.714 243.567 480.153 243.698 480.629 243.698C481.021 243.698 481.366 243.609 481.665 243.432C481.963 243.255 482.197 243.012 482.365 242.704C482.542 242.396 482.631 242.046 482.631 241.654C482.631 241.253 482.542 240.903 482.365 240.604C482.197 240.296 481.963 240.058 481.665 239.89C481.366 239.713 481.021 239.624 480.629 239.624C480.237 239.624 479.877 239.713 479.551 239.89C479.224 240.067 478.986 240.305 478.837 240.604L477.507 240.31L478.319 234.57H483.877V235.97H478.963L479.593 235.284L478.991 239.68L478.473 239.33C478.753 238.938 479.093 238.653 479.495 238.476C479.896 238.299 480.353 238.21 480.867 238.21C481.548 238.21 482.141 238.364 482.645 238.672C483.158 238.971 483.555 239.381 483.835 239.904C484.124 240.417 484.269 241.001 484.269 241.654C484.269 242.317 484.11 242.914 483.793 243.446C483.475 243.978 483.041 244.398 482.491 244.706C481.949 245.014 481.329 245.168 480.629 245.168ZM487.24 245V235.97H485.238V234.57H488.878V245H487.24ZM495.005 245.168C494.174 245.168 493.446 244.944 492.821 244.496C492.195 244.039 491.705 243.409 491.351 242.606C491.005 241.794 490.833 240.851 490.833 239.778C490.833 238.695 491.005 237.753 491.351 236.95C491.705 236.147 492.191 235.522 492.807 235.074C493.432 234.626 494.16 234.402 494.991 234.402C495.821 234.402 496.545 234.626 497.161 235.074C497.786 235.522 498.271 236.152 498.617 236.964C498.971 237.767 499.149 238.705 499.149 239.778C499.149 240.851 498.976 241.794 498.631 242.606C498.285 243.409 497.8 244.039 497.175 244.496C496.559 244.944 495.835 245.168 495.005 245.168ZM495.005 243.656C495.518 243.656 495.961 243.497 496.335 243.18C496.708 242.863 496.997 242.415 497.203 241.836C497.408 241.257 497.511 240.571 497.511 239.778C497.511 238.985 497.408 238.299 497.203 237.72C496.997 237.141 496.708 236.693 496.335 236.376C495.961 236.059 495.513 235.9 494.991 235.9C494.477 235.9 494.034 236.059 493.661 236.376C493.287 236.693 492.998 237.141 492.793 237.72C492.587 238.299 492.485 238.985 492.485 239.778C492.485 240.562 492.587 241.248 492.793 241.836C492.998 242.415 493.287 242.863 493.661 243.18C494.043 243.497 494.491 243.656 495.005 243.656Z" fill="#1A202C"/>
<rect x="268" y="135" width="12" height="12" rx="6" fill="#175D9C"/>
<path d="M296.732 147.168C296.079 147.168 295.472 147.047 294.912 146.804C294.352 146.552 293.876 146.211 293.484 145.782C293.092 145.353 292.803 144.858 292.616 144.298L294.016 143.71C294.268 144.354 294.637 144.849 295.122 145.194C295.607 145.539 296.167 145.712 296.802 145.712C297.175 145.712 297.502 145.656 297.782 145.544C298.062 145.423 298.277 145.255 298.426 145.04C298.585 144.825 298.664 144.578 298.664 144.298C298.664 143.915 298.557 143.612 298.342 143.388C298.127 143.164 297.81 142.987 297.39 142.856L295.43 142.24C294.646 141.997 294.049 141.629 293.638 141.134C293.227 140.63 293.022 140.042 293.022 139.37C293.022 138.782 293.167 138.269 293.456 137.83C293.745 137.382 294.142 137.032 294.646 136.78C295.159 136.528 295.743 136.402 296.396 136.402C297.021 136.402 297.591 136.514 298.104 136.738C298.617 136.953 299.056 137.251 299.42 137.634C299.793 138.017 300.064 138.46 300.232 138.964L298.86 139.566C298.655 139.015 298.333 138.591 297.894 138.292C297.465 137.993 296.965 137.844 296.396 137.844C296.051 137.844 295.747 137.905 295.486 138.026C295.225 138.138 295.019 138.306 294.87 138.53C294.73 138.745 294.66 138.997 294.66 139.286C294.66 139.622 294.767 139.921 294.982 140.182C295.197 140.443 295.523 140.639 295.962 140.77L297.782 141.344C298.613 141.596 299.238 141.96 299.658 142.436C300.078 142.903 300.288 143.486 300.288 144.186C300.288 144.765 300.134 145.278 299.826 145.726C299.527 146.174 299.112 146.529 298.58 146.79C298.048 147.042 297.432 147.168 296.732 147.168ZM305.768 147.168C304.994 147.168 304.303 147.005 303.696 146.678C303.099 146.351 302.628 145.903 302.282 145.334C301.946 144.765 301.778 144.116 301.778 143.388V136.57H303.43V143.318C303.43 143.775 303.528 144.181 303.724 144.536C303.93 144.891 304.205 145.166 304.55 145.362C304.905 145.558 305.311 145.656 305.768 145.656C306.235 145.656 306.641 145.558 306.986 145.362C307.341 145.166 307.616 144.891 307.812 144.536C308.018 144.181 308.12 143.775 308.12 143.318V136.57H309.758V143.388C309.758 144.116 309.59 144.765 309.254 145.334C308.918 145.903 308.447 146.351 307.84 146.678C307.243 147.005 306.552 147.168 305.768 147.168ZM314.321 147L310.625 136.57H312.403L315.427 145.474H315.077L318.087 136.57H319.865L316.169 147H314.321Z" fill="#90A3BF"/>
<path d="M464.461 147L468.031 142.38L468.311 142.562C468.18 142.702 468.036 142.814 467.877 142.898C467.728 142.982 467.564 143.043 467.387 143.08C467.219 143.117 467.037 143.136 466.841 143.136C466.216 143.136 465.656 142.996 465.161 142.716C464.666 142.427 464.274 142.035 463.985 141.54C463.705 141.036 463.565 140.467 463.565 139.832C463.565 139.169 463.719 138.581 464.027 138.068C464.335 137.555 464.755 137.149 465.287 136.85C465.819 136.551 466.426 136.402 467.107 136.402C467.798 136.402 468.404 136.551 468.927 136.85C469.459 137.149 469.874 137.559 470.173 138.082C470.481 138.595 470.635 139.183 470.635 139.846C470.635 140.201 470.598 140.551 470.523 140.896C470.448 141.241 470.318 141.601 470.131 141.974C469.944 142.338 469.683 142.739 469.347 143.178L466.435 147H464.461ZM467.107 141.75C467.471 141.75 467.793 141.666 468.073 141.498C468.353 141.33 468.577 141.101 468.745 140.812C468.913 140.523 468.997 140.191 468.997 139.818C468.997 139.435 468.913 139.099 468.745 138.81C468.577 138.511 468.348 138.283 468.059 138.124C467.779 137.956 467.462 137.872 467.107 137.872C466.752 137.872 466.43 137.956 466.141 138.124C465.861 138.283 465.637 138.511 465.469 138.81C465.301 139.099 465.217 139.435 465.217 139.818C465.217 140.191 465.296 140.523 465.455 140.812C465.623 141.101 465.852 141.33 466.141 141.498C466.43 141.666 466.752 141.75 467.107 141.75ZM471.941 149.058V148.288C472.249 148.213 472.487 148.069 472.655 147.854C472.823 147.649 472.926 147.364 472.963 147H472.221V145.18H473.831V146.37C473.831 147.117 473.673 147.719 473.355 148.176C473.038 148.633 472.567 148.927 471.941 149.058ZM480.441 147V144.648H475.471V143.276L480.371 136.57H482.009V143.276H483.451V144.648H482.009V147H480.441ZM476.689 143.878L476.423 143.276H480.441V137.886L480.889 138.026L476.689 143.878ZM484.746 147L489.198 137.97H484.186V136.57H490.92V137.97L486.538 147H484.746ZM495.578 147.168C494.85 147.168 494.211 147.028 493.66 146.748C493.119 146.459 492.699 146.076 492.4 145.6C492.101 145.115 491.952 144.578 491.952 143.99C491.952 143.318 492.134 142.739 492.498 142.254C492.871 141.759 493.394 141.4 494.066 141.176L493.996 141.596C493.501 141.409 493.109 141.097 492.82 140.658C492.54 140.21 492.4 139.72 492.4 139.188C492.4 138.656 492.535 138.18 492.806 137.76C493.086 137.34 493.464 137.009 493.94 136.766C494.425 136.523 494.971 136.402 495.578 136.402C496.194 136.402 496.74 136.523 497.216 136.766C497.692 136.999 498.065 137.326 498.336 137.746C498.616 138.166 498.756 138.647 498.756 139.188C498.756 139.739 498.611 140.233 498.322 140.672C498.042 141.101 497.659 141.409 497.174 141.596L497.104 141.176C497.776 141.409 498.299 141.769 498.672 142.254C499.045 142.739 499.232 143.318 499.232 143.99C499.232 144.578 499.078 145.115 498.77 145.6C498.471 146.076 498.047 146.459 497.496 146.748C496.945 147.028 496.306 147.168 495.578 147.168ZM495.578 145.768C495.979 145.768 496.329 145.693 496.628 145.544C496.927 145.385 497.16 145.171 497.328 144.9C497.496 144.629 497.58 144.312 497.58 143.948C497.58 143.584 497.496 143.267 497.328 142.996C497.16 142.725 496.927 142.515 496.628 142.366C496.329 142.217 495.979 142.142 495.578 142.142C495.186 142.142 494.841 142.217 494.542 142.366C494.243 142.515 494.01 142.725 493.842 142.996C493.674 143.267 493.59 143.584 493.59 143.948C493.59 144.312 493.674 144.629 493.842 144.9C494.01 145.171 494.243 145.385 494.542 145.544C494.841 145.693 495.186 145.768 495.578 145.768ZM495.578 140.742C495.877 140.742 496.138 140.681 496.362 140.56C496.595 140.429 496.777 140.252 496.908 140.028C497.039 139.804 497.104 139.552 497.104 139.272C497.104 138.983 497.039 138.731 496.908 138.516C496.777 138.292 496.595 138.119 496.362 137.998C496.138 137.867 495.877 137.802 495.578 137.802C495.289 137.802 495.027 137.867 494.794 137.998C494.561 138.119 494.379 138.292 494.248 138.516C494.117 138.731 494.052 138.983 494.052 139.272C494.052 139.552 494.117 139.804 494.248 140.028C494.379 140.252 494.561 140.429 494.794 140.56C495.027 140.681 495.289 140.742 495.578 140.742Z" fill="#1A202C"/>
<path d="M37.0097 158.427C34.3648 157.566 33.0423 157.135 31.804 157.358C30.7649 157.546 29.6901 158.143 28.982 158.926C28.1382 159.859 27.8271 161.12 27.2048 163.641C23.2811 179.538 22.948 196.146 26.2732 212.247C29.5984 228.349 36.4831 243.466 46.3831 256.508C47.9532 258.576 48.7382 259.61 49.8827 260.133C50.8431 260.572 52.0665 260.694 53.0948 260.455C54.3202 260.169 55.3639 259.25 57.4514 257.412L61.7462 253.629C63.8469 251.779 64.8973 250.854 65.3417 249.817C65.7575 248.846 65.8549 247.954 65.6582 246.917C65.448 245.808 64.5459 244.574 62.7418 242.107C55.3023 231.933 50.1086 220.257 47.5471 207.854C44.9855 195.45 45.1292 182.672 47.9299 170.383C48.6091 167.403 48.9487 165.913 48.7024 164.812C48.472 163.781 48.0293 163.001 47.263 162.274C46.4439 161.498 45.1131 161.065 42.4514 160.198L37.0097 158.427Z" fill="#63A9E8"/>
<path d="M61.8751 262.125C59.9082 264.092 58.9248 265.075 58.5622 266.28C58.2579 267.291 58.3026 268.52 58.6795 269.506C59.1287 270.681 60.1111 271.53 62.0759 273.228C81.0981 289.668 105.255 299.151 130.545 299.946C155.835 300.74 180.539 292.793 200.556 277.58C202.624 276.009 203.658 275.223 204.18 274.079C204.618 273.118 204.74 271.894 204.499 270.866C204.213 269.641 203.293 268.598 201.454 266.511L197.669 262.219C195.818 260.119 194.893 259.069 193.855 258.625C192.884 258.21 191.992 258.113 190.955 258.31C189.846 258.521 188.613 259.424 186.146 261.23C170.313 272.822 150.993 278.855 131.227 278.234C111.462 277.612 92.5585 270.378 77.4841 257.815C75.1361 255.858 73.9621 254.879 72.8686 254.599C71.8457 254.337 70.9492 254.378 69.9543 254.732C68.8906 255.109 67.901 256.099 65.9217 258.078L61.8751 262.125Z" fill="#2185DE"/>
<path d="M206.125 262.125C208.092 264.092 209.075 265.075 210.28 265.438C211.291 265.742 212.52 265.697 213.506 265.32C214.681 264.871 215.53 263.889 217.228 261.924C224.904 253.041 231.121 242.973 235.627 232.095C240.133 221.217 242.856 209.702 243.709 197.993C243.898 195.403 243.992 194.108 243.479 192.96C243.048 191.996 242.211 191.095 241.281 190.596C240.172 190 238.782 190 236 190H230.277C227.478 190 226.078 190 225.059 190.485C224.106 190.939 223.443 191.544 222.905 192.452C222.33 193.423 222.192 194.945 221.915 197.989C221.11 206.843 218.971 215.54 215.557 223.782C212.144 232.024 207.506 239.686 201.814 246.516C199.858 248.864 198.879 250.038 198.599 251.131C198.337 252.154 198.378 253.051 198.731 254.046C199.109 255.109 200.099 256.099 202.078 258.078L206.125 262.125Z" fill="#175D9C"/>
<path d="M235.746 182.803C238.52 182.607 239.908 182.508 240.971 181.836C241.864 181.272 242.635 180.315 242.997 179.323C243.428 178.141 243.243 176.856 242.872 174.285C239.449 150.566 228.355 128.531 211.174 111.615C193.993 94.6993 171.787 83.9499 148.017 80.8966C145.441 80.5657 144.154 80.4003 142.978 80.8498C141.992 81.227 141.047 82.0133 140.497 82.9146C139.841 83.9885 139.765 85.3771 139.612 88.1545L139.297 93.8686C139.143 96.6635 139.066 98.0609 139.494 99.1054C139.894 100.082 140.462 100.777 141.34 101.365C142.278 101.992 143.79 102.214 146.814 102.658C165.298 105.369 182.523 113.891 195.933 127.094C209.344 140.298 218.133 157.388 221.132 175.827C221.623 178.844 221.868 180.352 222.51 181.281C223.111 182.149 223.815 182.706 224.798 183.091C225.849 183.503 227.245 183.404 230.037 183.207L235.746 182.803Z" fill="#0D3559"/>
<path d="M134 88C134 85.2185 134 83.8277 133.404 82.7193C132.905 81.7892 132.004 80.952 131.04 80.5212C129.892 80.0077 128.597 80.1021 126.007 80.2907C106.775 81.6918 88.197 88.1298 72.1708 99.0211C56.1446 109.913 43.3199 124.816 34.9374 142.181C33.8086 144.52 33.2442 145.689 33.2987 146.946C33.3444 148.001 33.7914 149.147 34.4722 149.954C35.2835 150.915 36.5766 151.427 39.1628 152.451L44.4837 154.558C47.0863 155.588 48.3876 156.104 49.5138 156.028C50.5673 155.957 51.4062 155.639 52.2409 154.992C53.1332 154.301 53.822 152.936 55.1998 150.208C61.9312 136.877 71.9574 125.431 84.3809 116.988C96.8043 108.545 111.138 103.436 126.011 102.085C129.055 101.808 130.577 101.67 131.548 101.095C132.456 100.557 133.061 99.8943 133.515 98.9408C134 97.9215 134 96.5219 134 93.7228V88Z" fill="#A6CEF2"/>
</svg>
